# xmcd CD database file
#
# Track frame offsets:
#	150
#	34290
#	47812
#	75730
#	103252
#	127365
#	149832
#	172860
#	196042
#	222300
#	240942
#
# Disc length: 3518 seconds
#
# Revision: 0
# Processed by: cddbd v1.5.2PL0 Copyright (c) Steve Scherf et al.
# Submitted via: CDex 1.51
#
DISCID=a10dbc0b
DTITLE=Erik van der Luijt - en blanc et noir 7
DYEAR=2001
DGENRE=Jazz
TTITLE0=My Man's Gone Now
TTITLE1=Climb Every Mountain
TTITLE2=Black Coffee
TTITLE3=Wishing upon a Star
TTITLE4=Amazing Grace
TTITLE5=Bewitched
TTITLE6=Black and White
TTITLE7=Dolphin Dance
TTITLE8=My Favorite Things
TTITLE9=Lester Left Town
TTITLE10=Dear Old Stockholm
EXTD=YEAR: 2001
EXTT0=
EXTT1=
EXTT2=
EXTT3=
EXTT4=
EXTT5=
EXTT6=
EXTT7=
EXTT8=
EXTT9=
EXTT10=
PLAYORDER=
